<svg xmlns="http://www.w3.org/2000/svg" xmlns:xlink="http://www.w3.org/1999/xlink" version="1.1" x="0px" y="0px" viewBox="0 0 600 750" style="enable-background:new 0 0 600 600;" xml:space="preserve"><g><g><g><path d="M540,540H60c-5.523,0-10-4.478-10-10V210c0-5.523,4.477-10,10-10h480c5.522,0,10,4.477,10,10v320     C550,535.522,545.522,540,540,540z M70,520h460V220H70V520z"/></g><g><path d="M540,220H60c-5.523,0-10-4.477-10-10V110c0-5.523,4.477-10,10-10h480c5.522,0,10,4.477,10,10v100     C550,215.523,545.522,220,540,220z M70,200h460v-80H70V200z"/></g><g><path d="M160,160c-5.523,0-10-4.477-10-10V70c0-5.523,4.477-10,10-10s10,4.477,10,10v80C170,155.523,165.523,160,160,160z"/></g><g><path d="M440,160c-5.522,0-10-4.477-10-10V70c0-5.523,4.478-10,10-10s10,4.477,10,10v80C450,155.523,445.522,160,440,160z"/></g><rect x="120" y="270" width="40" height="40"/><rect x="200" y="270" width="40" height="40"/><rect x="280" y="270" width="40" height="40"/><rect x="360" y="270" width="40" height="40"/><rect x="440" y="270" width="40" height="40"/><rect x="120" y="350" width="40" height="40"/><rect x="200" y="350" width="40" height="40"/><rect x="280" y="350" width="40" height="40"/><rect x="360" y="350" width="40" height="40"/><rect x="440" y="350" width="40" height="40"/><rect x="120" y="430" width="40" height="40"/><rect x="200" y="430" width="40" height="40"/><rect x="280" y="430" width="40" height="40"/><rect x="360" y="430" width="40" height="40"/><rect x="440" y="430" width="40" height="40"/></g></g><text x="0" y="615" fill="#000000" font-size="5px" font-weight="bold" font-family="'Helvetica Neue', Helvetica, Arial-Unicode, Arial, Sans-serif">Created by ibrandify</text><text x="0" y="620" fill="#000000" font-size="5px" font-weight="bold" font-family="'Helvetica Neue', Helvetica, Arial-Unicode, Arial, Sans-serif">from the Noun Project</text></svg>