<svg xmlns="http://www.w3.org/2000/svg" viewBox="0 0 24 30" x="0px" y="0px"><title>46</title><path d="M12,1.15a8,8,0,0,0-8,8c0,3.7,5.52,11.12,7.21,13.31a1,1,0,0,0,1.58,0C14.48,20.27,20,12.85,20,9.15A8,8,0,0,0,12,1.15Zm0,20.7c-3.38-4.38-7-10-7-12.7a7,7,0,1,1,14,0C19,11.84,15.38,17.47,12,21.85Z"/><path d="M12,5.15a3,3,0,1,0,3,3A3,3,0,0,0,12,5.15Zm0,5a2,2,0,1,1,2-2A2,2,0,0,1,12,10.15Z"/><text x="0" y="39" fill="#000000" font-size="5px" font-weight="bold" font-family="'Helvetica Neue', Helvetica, Arial-Unicode, Arial, Sans-serif">Created by StoneHub</text><text x="0" y="44" fill="#000000" font-size="5px" font-weight="bold" font-family="'Helvetica Neue', Helvetica, Arial-Unicode, Arial, Sans-serif">from the Noun Project</text></svg>